<svg xmlns="http://www.w3.org/2000/svg" width="417" height="417" fill="none" viewBox="0 0 417 417">
  <rect width="417" height="417" rx="48" fill="#1a1923"/>
  <path fill="#fff" d="M208.841 332.865c-4.111 0-8.159-.218-12.176-.583V213.344h-20.897v-23.153h-10.49v23.153h-20.896V316.17C103.609 293.476 76 249.942 76 199.919c0-73.415 59.474-132.947 132.841-132.947 4.11 0 8.158.219 12.175.583v145.987h20.897v45.565h10.49v-45.565h20.896V83.667c40.784 22.694 68.393 66.239 68.393 116.252 0 73.425-59.474 132.946-132.841 132.946zM196.666 332.293v35.202h-20.897v26.485h-10.49v-26.485h-20.896v-51.314a131.8 131.8 0 0 0 52.272 16.112z"/>
  <path fill="#fff" d="M221.008 67.555V46.35h20.896V24h10.49v22.35h20.897v37.317a131.8 131.8 0 0 0-52.273-16.112z"/>
</svg>
